Patient4_TMGait_0pt7_01_right_04_GRF.mot
version=1
nRows=26
nColumns=19
inDegrees=no
endheader
time	F1x	F1y	F1z	M1x	M1y	M1z	F2x	F2y	F2z	M2x	M2y	M2z	EC1x	EC1y	EC1z	EC2x	EC2y	EC2z
4.04	9.9327	723.5903	70.5779	-284.3979	-68.1156	672.0892	23.1444	-7.3351	-17.0829	2.9532	6.7749	-15.4914	-0.0592	0.0182	-0.0073	-0.0462	0.0165	0.9585
4.0519	8.8477	715.6495	70.2623	-281.334	-65.1086	662.3609	15.2276	-4.0356	-11.7636	2.3528	4.9439	-9.5014	-0.0592	0.0182	-0.0073	-0.0462	0.0165	0.9585
4.0637	8.5265	708.0353	69.8804	-278.1712	-62.1026	652.3667	8.5514	-1.2165	-7.1901	1.8379	3.3256	-4.4138	-0.0592	0.0182	-0.0073	-0.0462	0.0165	0.9585
4.0756	8.8792	701.7975	69.5441	-275.2966	-59.3717	643.22	3.4469	0.98937	-3.6583	1.455	2.0515	-0.45742	-0.0592	0.0182	-0.0073	-0.0462	0.0165	0.9585
4.0874	9.727	697.7917	69.3767	-273.0585	-57.1056	635.8174	-0.064039	2.5608	-1.1852	1.2025	1.1319	2.3357	-0.0592	0.0182	-0.0073	-0.0462	0.0165	0.9585
4.0993	10.8906	696.4995	69.4493	-271.6903	-55.3682	630.6774	-2.2655	3.6139	0.369	1.0671	0.54455	4.1875	-0.0592	0.0182	-0.0073	-0.0462	0.0165	0.9585
4.1111	12.2852	698.0133	69.7533	-271.2884	-54.1	627.9279	-3.4409	4.2129	1.2153	1.0063	0.21576	5.2273	-0.0592	0.0182	-0.0073	-0.0462	0.0165	0.9585
4.123	13.8407	702.045	70.2743	-271.8059	-53.221	627.3326	-3.9504	4.473	1.553	0.98376	0.099769	5.6857	-0.0592	0.0182	-0.0073	-0.0462	0.0165	0.9585
4.1349	15.5361	708.0163	70.9268	-273.0835	-52.5881	628.3787	-4.0273	4.411	1.5691	0.94662	0.12302	5.6356	-0.0592	0.0182	-0.0073	-0.0462	0.0165	0.9585
4.1467	17.3639	715.2224	71.6503	-274.8995	-52.0858	630.4327	-3.9218	4.0322	1.3882	0.84712	0.25959	5.1756	-0.0592	0.0182	-0.0073	-0.0462	0.0165	0.9585
4.1586	19.3461	722.9478	72.3481	-277.0171	-51.5729	632.8265	-3.7266	3.2582	1.1156	0.62881	0.44799	4.2448	-0.0592	0.0182	-0.0073	-0.0462	0.0165	0.9585
4.1704	21.5081	730.5968	73.0095	-279.2281	-50.9967	635.0127	-3.5406	2.0255	0.80921	0.24768	0.66354	2.8242	-0.0592	0.0182	-0.0073	-0.0462	0.0165	0.9585
4.1823	23.8995	737.7874	73.6094	-281.3929	-50.3011	636.6483	-3.3345	0.22961	0.51847	-0.3384	0.85309	0.80334	-0.0592	0.0182	-0.0073	-0.0462	0.0165	0.9585
4.1941	26.4836	744.3443	74.1927	-283.439	-49.5205	637.5945	-3.0737	-2.1309	0.27616	-1.1351	0.97142	-1.8022	-0.0592	0.0182	-0.0073	-0.0462	0.0165	0.9585
4.206	29.2059	750.2544	74.76	-285.3459	-48.6653	637.8632	-2.6341	-4.9795	0.119	-2.1117	0.94047	-4.9326	-0.0592	0.0182	-0.0073	-0.0462	0.0165	0.9585
4.2179	31.924	755.4898	75.3238	-287.0779	-47.7891	637.5108	-1.8985	-8.0033	0.10422	-3.1566	0.65795	-8.2462	-0.0592	0.0182	-0.0073	-0.0462	0.0165	0.9585
4.2297	34.4781	759.8733	75.8429	-288.5354	-46.9143	636.4691	-0.68801	-10.6049	0.29582	-4.0517	-0.0034753	-11.101	-0.0592	0.0182	-0.0073	-0.0462	0.0165	0.9585
4.2416	36.702	763.0609	76.32	-289.5502	-46.1071	634.5651	1.1232	-11.7741	0.7776	-4.4299	-1.1779	-12.3877	-0.0592	0.0182	-0.0073	-0.0462	0.0165	0.9585
4.2534	38.5459	764.6239	76.7141	-289.9278	-45.361	631.5315	3.6484	-9.9904	1.6328	-3.7433	-2.9878	-10.4589	-0.0592	0.0182	-0.0073	-0.0462	0.0165	0.9585
4.2653	40.0195	764.1099	76.9888	-289.4695	-44.648	627.065	6.8623	-3.2101	2.935	-1.257	-5.4929	-3.0902	-0.0592	0.0182	-0.0073	-0.0462	0.0165	0.9585
4.2771	41.2672	761.0248	77.0488	-287.9787	-43.8573	620.7764	10.5277	11.0633	4.7137	3.9212	-8.6315	12.4228	-0.0592	0.0182	-0.0073	-0.0462	0.0165	0.9585
4.289	42.4476	754.8213	76.7521	-285.2558	-42.8361	612.2222	14.0759	35.5198	6.9154	12.7459	-12.1348	38.9918	-0.0592	0.0182	-0.0073	-0.0462	0.0165	0.9585
4.3009	43.7294	744.8157	75.8897	-281.0676	-41.3822	600.832	16.4656	72.4684	9.3105	26.0293	-15.3804	79.1204	-0.0592	0.0182	-0.0073	-0.0462	0.0165	0.9585
4.3127	45.1961	730.0468	74.2134	-275.0913	-39.2903	585.8656	16.1004	122.9828	11.4432	44.1309	-17.3085	133.9581	-0.0592	0.0182	-0.0073	-0.0462	0.0165	0.9585
4.3246	46.8047	709.1453	71.4974	-266.8609	-36.4215	566.2767	11.1376	185.95	12.5991	66.6116	-16.5189	202.3022	-0.0592	0.0182	-0.0073	-0.0462	0.0165	0.9585
4.3364	48.2947	680.5122	67.5672	-255.8187	-32.7446	540.8875	0.49566	257.1345	12.0051	91.9012	-11.808	279.5103	-0.0592	0.0182	-0.0073	-0.0462	0.0165	0.9585
